<svg width="146" height="27" viewBox="0 0 146 27" fill="none" xmlns="http://www.w3.org/2000/svg">
<path d="M17.97 10.8337C18.7536 11.3194 19.5526 11.7781 20.2949 12.3274C21.1656 13.043 21.8333 13.9383 22.2414 14.9374C22.6495 15.9364 22.7861 17.0099 22.6395 18.067C22.4929 19.124 22.0674 20.1335 21.3992 21.0099C20.731 21.8864 19.8395 22.604 18.8005 23.1021C16.985 23.8948 14.9909 24.2936 12.976 24.2667C8.88011 24.2885 4.78345 24.2667 0.68372 24.2832C0.175696 24.2832 -0.00284681 24.1814 3.424e-05 23.6879C0.0202016 19.3846 -0.000325892 15.0813 0.0150397 10.778C0.00114637 9.96977 0.341086 9.18947 0.960383 8.60778C1.57968 8.02609 2.4283 7.6904 3.31999 7.67415C3.98455 7.59233 4.66449 7.62627 5.3204 7.50006C8.64288 7.89448 11.907 8.61956 15.0543 9.66216C15.7585 9.89775 16.4607 10.1353 17.1611 10.375C17.4832 10.4337 17.771 10.5968 17.97 10.8337Z" fill="#8989A2"/>
<path d="M18.712 12.4452C16.1529 11.421 13.5323 10.5574 10.8658 9.85923C9.1418 9.48223 7.43081 9.04124 5.67781 8.81724C5.44481 8.64824 5.06903 8.88628 4.89803 8.54228C4.16903 8.34228 3.43799 8.14226 2.71199 7.93126C1.93945 7.74606 1.25386 7.30174 0.769122 6.67235C0.284382 6.04295 0.0297002 5.26649 0.0479301 4.47227C-0.0140699 3.14127 0.0272153 1.80627 0.0152153 0.472272C0.0152153 0.203272 0.0437973 0.0262462 0.386797 0.0332462C5.5098 0.133246 10.6379 -0.182728 15.7559 0.222272C16.6691 0.300201 17.5652 0.518076 18.4122 0.868268C21.5822 2.15727 22.4262 4.94326 22.0782 7.83726C21.9611 8.83006 21.5893 9.7758 20.9996 10.5831C20.4099 11.3903 19.6221 12.0317 18.712 12.4452Z" fill="#A0A0BD"/>
<path d="M76.2841 3.43433C77.2853 3.45207 78.2703 3.66786 79.1699 4.06658C80.0694 4.4653 80.8622 5.03735 81.4924 5.74269C81.9773 6.32289 82.318 6.99124 82.4912 7.70195C82.5873 8.04489 82.4783 8.17978 82.0884 8.25377C81.2527 8.40415 80.4271 8.59656 79.6149 8.83002C79.1577 8.9658 79.0291 8.83 78.8543 8.48184C78.638 8.06521 78.3316 7.69215 77.9535 7.38469C77.5753 7.07722 77.1331 6.84158 76.6527 6.69177C76.1723 6.54197 75.6637 6.481 75.1568 6.51248C74.65 6.54396 74.1551 6.66725 73.7018 6.87506C73.4035 7.0003 73.153 7.20302 72.982 7.45747C72.811 7.71192 72.7273 8.00664 72.7414 8.30429C72.7468 8.59096 72.8507 8.86893 73.0387 9.09952C73.2267 9.33012 73.4896 9.50184 73.7904 9.59072C75.7111 10.3828 77.7844 10.7954 79.6744 11.6388C80.9251 12.078 81.9711 12.8936 82.637 13.9489C83.2456 15.1403 83.3168 16.4999 82.8359 17.7384C82.355 18.9768 81.3599 19.9962 80.0622 20.5796C78.6467 21.2894 77.0321 21.6063 75.4194 21.4907C73.8068 21.375 72.2676 20.8321 70.9928 19.9294C70.2792 19.4215 69.6889 18.7854 69.2592 18.0611C68.8296 17.3368 68.5698 16.5398 68.4958 15.7201C68.4516 15.4303 68.5082 15.2623 68.8799 15.1979C69.8642 15.0238 70.8487 14.8497 71.8148 14.6086C72.2556 14.5007 72.3226 14.6557 72.386 14.9725C72.455 15.3525 72.5611 15.7262 72.703 16.0892C73.4876 17.9945 74.766 18.6525 76.9767 18.2948C77.4234 18.2371 77.8594 18.1244 78.2723 17.9597C78.6284 17.8405 78.935 17.6249 79.1511 17.3421C79.3672 17.0593 79.4823 16.723 79.4803 16.379C79.5021 16.0247 79.4095 15.6723 79.2135 15.3651C79.0174 15.0579 78.7266 14.8091 78.3769 14.6495C77.1614 14.0602 75.874 13.6016 74.5411 13.283C73.317 12.9511 72.1565 12.4506 71.1002 11.799C68.4352 10.2401 68.5072 6.47993 71.081 4.71561C72.365 3.82693 73.7728 3.40387 76.2841 3.43433Z" fill="#8989A2"/>
<path d="M120.348 9.35224C122.193 7.65407 124.233 7.21448 126.501 8.09359C127.382 8.42066 128.13 8.9865 128.642 9.71365C129.155 10.4408 129.407 11.2937 129.364 12.1558C129.42 14.9759 129.371 17.7986 129.385 20.6196C129.385 20.9756 129.284 21.094 128.883 21.0818C128.055 21.0557 127.225 21.0505 126.398 21.0818C125.949 21.1001 125.866 20.9487 125.868 20.577C125.885 18.2112 125.877 15.8446 125.877 13.478C125.877 13.296 125.884 13.1132 125.868 12.9331C125.72 11.3855 124.902 10.5943 123.502 10.6422C121.498 10.7109 120.525 11.5221 120.517 13.1663C120.505 15.6035 120.501 18.0354 120.527 20.4699C120.527 20.9269 120.439 21.1114 119.885 21.0792C119.059 21.0331 118.227 21.0487 117.399 21.0792C116.995 21.0923 116.897 20.9652 116.898 20.6127C116.912 16.5856 116.912 12.5585 116.898 8.5314C116.898 8.18323 116.994 8.04832 117.401 8.06225C118.128 8.09988 118.858 8.09815 119.585 8.05704C120.207 8.01091 120.466 8.17453 120.353 8.75335C120.335 8.9526 120.334 9.15278 120.348 9.35224V9.35224Z" fill="#8989A2"/>
<path d="M104.241 9.37312C105.297 8.0031 106.507 7.45818 108.129 7.79503C108.509 7.8725 108.618 8.00482 108.543 8.35386C108.385 9.08848 108.249 9.83356 108.149 10.5725C108.103 10.9146 108.02 11.026 107.598 10.9694C105.582 10.7005 104.557 11.4534 104.502 13.3309C104.434 15.694 104.444 18.0598 104.47 20.4238C104.476 20.9748 104.296 21.1201 103.718 21.0853C102.918 21.0409 102.112 21.0618 101.309 21.0801C100.982 21.0879 100.882 21 100.882 20.698C100.892 16.5827 100.892 12.4671 100.882 8.35125C100.882 8.0292 100.978 7.91602 101.342 7.92646C102.094 7.94996 102.849 7.9665 103.6 7.92646C104.136 7.89513 104.322 8.05267 104.248 8.52704C104.227 8.8087 104.225 9.09123 104.241 9.37312V9.37312Z" fill="#8989A2"/>
<path d="M50.3761 14.6399C50.3761 16.5975 50.3629 18.5568 50.3869 20.5126C50.3917 20.9391 50.2983 21.1123 49.7797 21.0853C48.9538 21.0427 48.1222 21.0575 47.2944 21.0853C46.9006 21.0966 46.7837 20.9861 46.7847 20.6249C46.7981 16.596 46.7981 12.5675 46.7847 8.53926C46.7847 8.19109 46.8806 8.05704 47.2878 8.06835C48.1416 8.09185 48.9972 8.09708 49.8491 8.06835C50.2899 8.05269 50.3865 8.19544 50.3836 8.56885C50.3664 10.5882 50.3761 12.6136 50.3761 14.6399Z" fill="#8989A2"/>
<path d="M113.752 14.5973C113.752 16.5549 113.736 18.5141 113.764 20.4708C113.77 20.9234 113.683 21.1184 113.124 21.0853C112.323 21.0383 111.516 21.0575 110.713 21.0801C110.335 21.0906 110.193 21.0087 110.196 20.6353C110.215 16.6059 110.22 12.5762 110.21 8.54622C110.21 8.15106 110.349 8.04838 110.765 8.06231C111.567 8.09016 112.374 8.09538 113.176 8.06231C113.638 8.04229 113.769 8.15977 113.763 8.58453C113.736 10.5899 113.752 12.5936 113.752 14.5973Z" fill="#8989A2"/>
<path d="M48.621 6.06819C46.7963 6.06819 46.7964 6.06821 46.7964 4.42401C46.7964 3.06183 46.7963 3.05743 48.3387 3.06352C48.9869 3.06352 49.8245 2.87205 50.2336 3.16276C50.6686 3.4735 50.3623 4.26734 50.3738 4.8479C50.3968 6.06647 50.3803 6.06644 49.0022 6.06644L48.621 6.06819Z" fill="#8989A2"/>
<path d="M112.047 3.06183C113.752 3.06183 113.752 3.06183 113.751 4.61463C113.751 6.06821 113.751 6.08127 112.178 6.06299C111.536 6.05516 110.681 6.32412 110.312 5.94027C109.998 5.61474 110.215 4.86008 110.215 4.29519C110.215 3.06269 110.215 3.06268 111.596 3.06268L112.047 3.06183Z" fill="#8989A2"/>
<path d="M4.70328 7.43646C4.94337 7.53917 5.24326 7.49219 5.45262 7.67585H3.32419C3.73906 7.38426 4.28073 7.69671 4.70328 7.43646Z" fill="#8989A2"/>
<path d="M41.7659 11.7111C42.2415 11.4169 42.6626 11.0564 43.0141 10.6431C43.4651 10.0486 43.7312 9.3551 43.7846 8.63531C43.838 7.91551 43.6766 7.19597 43.3175 6.55215C42.9706 5.79949 42.3985 5.1498 41.6655 4.67651C40.9325 4.20322 40.0681 3.92524 39.1699 3.87394C36.2889 3.6485 33.3981 3.83213 30.5122 3.77991C30.0157 3.7712 30.0147 3.99054 30.0157 4.31956C30.024 7.11821 30.0259 9.91658 30.0208 12.7147C30.0208 15.3311 30.0223 17.9475 30.0255 20.564C30.0255 20.7772 29.8718 21.0862 30.3664 21.0792C33.476 21.0087 36.597 21.2969 39.6951 20.92C40.8363 20.7918 41.9038 20.3398 42.7445 19.6286C43.5852 18.9175 44.1561 17.9836 44.3759 16.9605C44.882 14.6095 44.0889 13.0097 41.7659 11.7111ZM34.303 6.8368C35.5082 6.85421 36.715 6.82546 37.9202 6.85157C38.2104 6.82888 38.5027 6.86304 38.777 6.95176C39.0512 7.04048 39.3012 7.18166 39.5099 7.36572C39.7186 7.54977 39.8814 7.77242 39.9868 8.01847C40.0921 8.26452 40.1375 8.52823 40.1204 8.79171C40.1356 9.05434 40.0881 9.31683 39.9812 9.56128C39.8742 9.80574 39.7102 10.0264 39.5005 10.2082C39.2908 10.39 39.0404 10.5286 38.7662 10.6146C38.492 10.7006 38.2006 10.732 37.9118 10.7066C37.3356 10.7223 36.7596 10.7066 36.1834 10.7066C35.5553 10.7066 34.9263 10.6883 34.3002 10.7136C33.916 10.7292 33.7729 10.6422 33.7834 10.2679C33.8122 9.26694 33.8142 8.26598 33.7834 7.26414C33.7633 6.88029 33.9409 6.83067 34.303 6.8359V6.8368ZM38.7338 17.817C37.9867 17.8648 37.2331 17.8257 36.4811 17.8257V17.8613C35.7541 17.8613 35.0271 17.8492 34.3011 17.8666C33.9439 17.8753 33.764 17.8222 33.7745 17.4314C33.8043 16.2285 33.7956 15.0247 33.7745 13.8218C33.7745 13.5032 33.862 13.3866 34.2317 13.3953C35.7097 13.4171 37.1898 13.3822 38.6668 13.4231C38.9624 13.4213 39.2551 13.4733 39.5282 13.576C39.8012 13.6787 40.0491 13.8301 40.2564 14.0211C40.4637 14.212 40.6263 14.4388 40.7352 14.6879C40.844 14.937 40.8967 15.2034 40.8899 15.4712C40.9139 16.9431 40.2204 17.7221 38.7338 17.8204V17.817Z" fill="#8989A2"/>
<path d="M145.104 8.18241C144.719 7.8856 143.868 8.07709 143.221 8.07361C141.888 8.06578 141.889 8.07365 141.695 9.2191C141.418 8.96419 141.125 8.72384 140.818 8.49925C139.727 7.88537 138.443 7.61334 137.165 7.725C135.887 7.83666 134.685 8.32583 133.744 9.11726C130.747 11.6658 130.8 16.1197 132.394 18.5716C134.421 21.6877 139.056 22.4623 141.62 19.8676C141.62 20.4508 141.62 20.9643 141.62 21.4788C141.665 21.8378 141.621 22.2014 141.493 22.5434C141.364 22.8855 141.153 23.1974 140.876 23.4568C140.598 23.7162 140.261 23.9165 139.888 24.0435C139.515 24.1704 139.115 24.2208 138.717 24.191C137.945 24.2164 137.182 24.0273 136.531 23.649C135.88 23.2707 135.372 22.7212 135.076 22.0741C134.59 22.3701 134.153 22.6338 133.717 22.901C132.262 23.7941 132.247 23.9333 133.48 25.124C133.515 25.1571 133.553 25.1876 133.588 25.2198C134.302 25.8291 135.147 26.2977 136.07 26.5963C136.993 26.8948 137.975 27.0168 138.953 26.9545C139.783 26.9786 140.609 26.8483 141.382 26.5718C142.154 26.2952 142.856 25.8782 143.444 25.3464C144.032 24.8146 144.493 24.1793 144.8 23.4797C145.106 22.7801 145.252 22.031 145.226 21.2786C145.226 17.479 145.225 13.6782 145.222 9.87626C145.221 9.29309 145.508 8.49663 145.104 8.18241ZM141.652 13.4266C141.636 13.8122 141.652 14.1995 141.652 14.586C141.652 14.9725 141.657 15.3589 141.652 15.7454C141.703 16.3053 141.55 16.865 141.217 17.3385C140.883 17.8121 140.387 18.1733 139.805 18.367C139.201 18.5992 138.535 18.6652 137.89 18.5569C137.245 18.4486 136.649 18.1707 136.177 17.7578C134.458 16.3408 134.468 12.4909 136.377 11.2167C136.866 10.8556 137.457 10.6265 138.083 10.5555C138.709 10.4846 139.344 10.5746 139.916 10.8154C140.48 11.0196 140.955 11.3852 141.268 11.8566C141.582 12.328 141.717 12.8793 141.652 13.4266V13.4266Z" fill="#8989A2"/>
<path d="M66.4039 8.46097C66.4039 8.09714 66.2315 8.0571 65.9078 8.06667C65.3556 8.08321 64.8034 8.07103 64.2502 8.07103C63.0613 8.07103 63.0621 8.07101 62.9968 9.14161C62.9968 9.16598 62.9288 9.18689 62.8894 9.21126C62.6119 8.95263 62.3179 8.70906 62.0088 8.48185C59.9872 7.15448 56.7143 7.54531 54.8291 9.23129C52.0576 11.7111 51.9555 15.9656 53.5804 18.5281C55.649 21.7843 60.3502 22.4057 62.8509 19.8337C62.8509 20.5901 62.878 21.2011 62.8453 21.8087C62.8513 22.3269 62.6619 22.8315 62.3084 23.2389C61.9549 23.6463 61.4583 23.9321 60.9012 24.0491C60.2394 24.2422 59.5311 24.2617 58.8576 24.1052C58.1841 23.9487 57.5731 23.6226 57.0954 23.1648C56.7506 22.8497 56.6488 22.176 56.1754 22.2073C55.7173 22.2395 55.2928 22.6817 54.8577 22.9498C53.4066 23.8419 53.3925 23.9943 54.6256 25.1563C54.6602 25.1893 54.6965 25.2198 54.733 25.252C55.5188 25.9109 56.4561 26.4039 57.4771 26.6957C58.4981 26.9875 59.5774 27.0708 60.6381 26.9397C62.1501 26.8968 63.5865 26.33 64.6511 25.356C65.7158 24.382 66.3276 23.075 66.3608 21.7042C66.4578 17.2913 66.3886 12.8757 66.4039 8.46097ZM62.8842 14.5234H62.8749C62.8749 15.0004 62.9038 15.4808 62.8692 15.9552C62.8712 16.4953 62.6845 17.022 62.3356 17.4599C61.9867 17.8977 61.4937 18.2242 60.9274 18.3923C60.3432 18.6128 59.7004 18.6725 59.0789 18.5642C58.4575 18.4558 57.8849 18.1842 57.4326 17.783C55.6079 16.2163 55.6355 12.7521 57.4813 11.2941C57.9576 10.8997 58.5517 10.6412 59.1891 10.5509C59.8266 10.4607 60.4795 10.5427 61.0658 10.7867C61.6488 10.984 62.1435 11.3502 62.4735 11.8285C62.8034 12.3068 62.9499 12.8704 62.8903 13.4319C62.875 13.7957 62.8842 14.1595 62.8842 14.5234Z" fill="#8989A2"/>
<path d="M98.1924 11.7241C97.8699 10.6956 97.2261 9.77357 96.3387 9.06905C95.4514 8.36454 94.3582 7.90761 93.1909 7.7533C92.2906 7.59254 91.3595 7.64954 90.4913 7.91862C89.6231 8.1877 88.8484 8.65936 88.2452 9.28607C88.231 9.10903 88.231 8.93127 88.2452 8.75423C88.3623 8.17715 88.1013 8.00743 87.4771 8.05792C86.8254 8.10485 86.1706 8.10485 85.5189 8.05792C85.0022 8.02571 84.8464 8.15104 84.8464 8.64543C84.8669 14.4284 84.8669 20.2114 84.8464 25.9944C84.8464 26.454 84.9427 26.6481 85.4987 26.6124C86.2016 26.5565 86.9083 26.5565 87.6112 26.6124C88.3142 26.6794 88.4241 26.4287 88.4135 25.8586C88.3741 23.8906 88.398 21.9218 88.398 19.9242C88.5133 19.966 88.57 19.9703 88.595 19.9982C90.5061 22.1446 94.9733 21.8913 97.0323 19.3506C97.9266 18.2743 98.5028 17.0087 98.7058 15.6739C98.9089 14.3392 98.732 12.9795 98.1924 11.7241V11.7241ZM93.8122 17.8256C93.3413 18.2262 92.7491 18.4901 92.1114 18.5831C91.4738 18.6762 90.8202 18.5943 90.2343 18.3479C89.6775 18.1575 89.2012 17.8124 88.8735 17.3621C88.5458 16.9118 88.3831 16.3791 88.4093 15.8402C88.3958 15.405 88.4093 14.9768 88.4093 14.5442C88.4093 14.1804 88.4093 13.8165 88.4093 13.4527C88.3588 12.8579 88.5283 12.2648 88.8909 11.767C89.2534 11.2691 89.7883 10.8948 90.4116 10.7031C91.0566 10.5055 91.751 10.4817 92.4106 10.6344C93.0702 10.7872 93.6669 11.1101 94.1282 11.5639C95.6629 13.1368 95.5216 16.4156 93.8122 17.8248V17.8256Z" fill="#8989A2"/>
</svg>
